<?xml version="1.0" encoding="utf-8"?>
<!-- Generator: Adobe Illustrator 18.0.0, SVG Export Plug-In . SVG Version: 6.00 Build 0)  -->
<!DOCTYPE svg PUBLIC "-//W3C//DTD SVG 1.1//EN" "http://www.w3.org/Graphics/SVG/1.1/DTD/svg11.dtd">
<svg version="1.1" id="Layer_1" xmlns="http://www.w3.org/2000/svg" xmlns:xlink="http://www.w3.org/1999/xlink" x="0px" y="0px"
	 viewBox="0 0 612 612" enable-background="new 0 0 612 612" xml:space="preserve">
<polygon fill="#59BF94" stroke="#FFFFFF" stroke-miterlimit="10" points="305,387.5 209.7,387.5 209.7,270.3 304.6,259.6 "/>
<g>
	<path fill="#2D3139" d="M368.7,268.9c0,0.5-0.4,0.9-0.9,0.8l-12.5-2.4c-0.5-0.1-1-0.6-0.9-1.2l1.6-39.9c0-0.5,0.5-1,1-1h9.1
		c0.5,0,1,0.4,1,1L368.7,268.9z"/>
	<path fill="none" stroke="#2D3139" stroke-miterlimit="10" d="M368.7,268.9c0,0.5-0.4,0.9-0.9,0.8l-12.5-2.4
		c-0.5-0.1-1-0.6-0.9-1.2l1.6-39.9c0-0.5,0.5-1,1-1h9.1c0.5,0,1,0.4,1,1L368.7,268.9z"/>
</g>
<g>
	<path fill="#2D3139" d="M322.3,259.5c0,0.5-0.4,0.9-1,0.8l-12.6-2c-0.5-0.1-1-0.6-0.9-1.2l1.7-42c0-0.5,0.5-1,1-1h9.1
		c0.5,0,1,0.4,1,1L322.3,259.5z"/>
	<path fill="none" stroke="#2D3139" stroke-miterlimit="10" d="M322.3,259.5c0,0.5-0.4,0.9-1,0.8l-12.6-2c-0.5-0.1-1-0.6-0.9-1.2
		l1.7-42c0-0.5,0.5-1,1-1h9.1c0.5,0,1,0.4,1,1L322.3,259.5z"/>
</g>
<polygon fill="#2D3139" stroke="#2D3139" stroke-miterlimit="10" points="305,387.5 403,387.5 403.7,276.7 305,258.1 "/>
<g>
	<path fill="#59BF94" stroke="#59BF94" stroke-miterlimit="10" d="M305.3,352.2c0.1-0.7,0.2-1.5,0.2-2.2l6.4,7.5
		c0.8-0.7,1.7-1,2.6-0.9c1.1,0.1,2.1,0.6,2.9,1.5c1.7,2,1.8,5.3,0.2,7.3c-0.8,1-1.9,1.6-3.1,1.5c-1.1,0-2.1-0.6-2.9-1.5
		c-0.9-1-1.3-2.3-1.4-3.7c0-1.1,0.2-2.1,0.7-3L305.3,352.2z M312.5,364.2c0.5,0.6,1.2,1,2,1c0.8,0,1.5-0.3,2.1-1
		c1.1-1.3,1-3.5-0.1-4.9c-0.5-0.6-1.2-1-1.9-1c-0.8,0-1.6,0.3-2.1,1c-0.5,0.7-0.8,1.5-0.8,2.4C311.6,362.6,311.9,363.5,312.5,364.2z
		"/>
	<path fill="#59BF94" stroke="#59BF94" stroke-miterlimit="10" d="M305,330.8c0.2-0.5,0.4-1.1,0.5-1.8l12.3,14.6
		c0.7-0.6,1.7-1,2.6-0.9c1.1,0.1,2.1,0.6,2.8,1.6c1.7,2,1.8,5.2,0.3,7.2c-0.8,1-1.9,1.5-3.1,1.5c-1.1-0.1-2.1-0.6-2.9-1.5
		c-0.8-1-1.3-2.3-1.4-3.7c0-1.1,0.2-2.1,0.7-3L305,330.8z M318.5,350.2c0.5,0.6,1.2,1,1.9,1c0.8,0,1.5-0.3,2.1-1
		c1-1.3,1-3.5-0.2-4.8c-0.5-0.6-1.2-1-1.9-1c-0.8-0.1-1.5,0.3-2.1,1c-0.5,0.6-0.8,1.5-0.7,2.4C317.6,348.6,317.9,349.5,318.5,350.2z
		"/>
	<path fill="#59BF94" stroke="#59BF94" stroke-miterlimit="10" d="M305.6,310.8c0.2-0.7,0.2-1.4,0.2-2.1l17.7,21.2
		c0.7-0.6,1.6-0.9,2.6-0.8c1,0.1,2,0.7,2.7,1.6c0.8,1,1.3,2.3,1.3,3.6c0.1,1.3-0.3,2.6-1,3.5c-0.8,1-1.9,1.5-3.1,1.4
		c-1-0.1-2-0.6-2.8-1.5c-1.5-1.8-1.8-4.6-0.7-6.6L305.6,310.8z M324.3,336.5c0.5,0.6,1.2,1,1.8,1c0.8,0.1,1.5-0.3,2-0.9
		c0.5-0.6,0.7-1.5,0.7-2.4c0-0.9-0.4-1.8-0.9-2.4c-0.5-0.6-1.2-1-1.8-1c-0.8-0.1-1.5,0.3-2.1,0.9C323,333,323.1,335.1,324.3,336.5z"
		/>
	<path fill="#59BF94" stroke="#59BF94" stroke-miterlimit="10" d="M312.4,261.4v34.8l20.5,24.7l2.2,2.7l30.6,3.5v-19.3
		c-1.7-0.6-3-2.8-3-5.1c0-2.6,1.6-4.5,3.6-4.1c2,0.3,3.5,2.7,3.5,5.3c0,2.3-1.3,4-2.9,4.2v20.5l-0.3,0.2c-0.2,0.1-0.3,0.1-0.4,0.1
		l-31.1-3.4c0,0,0,0-0.1,0c-0.2,0-0.4-0.1-0.6-0.4l-23-27.6c-0.2-0.3-0.3-0.6-0.3-0.9v-35.5C311.3,261.2,311.8,261.4,312.4,261.4z
		 M366.2,306.4c1.3,0.2,2.4-1,2.4-2.8c0-1.7-1.1-3.3-2.4-3.5c-1.3-0.2-2.4,1-2.4,2.8C363.8,304.6,364.9,306.2,366.2,306.4z"/>
	<path fill="#59BF94" stroke="#59BF94" stroke-miterlimit="10" d="M328.8,375.4l49.8,1c0.3-2.2,1.7-3.8,3.3-3.7
		c1.8,0,3.3,2.1,3.3,4.6c0,2.5-1.5,4.5-3.3,4.5c-1.7,0-3-1.7-3.3-3.9l-49.8-0.8c-0.3,2.4-2,4.2-4.1,4.2c-2.3,0-4.2-2.3-4.2-5.2
		c0-2.8,1.9-5.1,4.2-5C326.8,371.2,328.4,373,328.8,375.4z M381.9,380.2c1.2,0,2.2-1.3,2.2-3c0-1.7-1-3-2.2-3.1
		c-1.2,0-2.2,1.3-2.2,3C379.6,378.8,380.7,380.2,381.9,380.2z M324.7,372.8c-1.5,0-2.8,1.5-2.8,3.3s1.2,3.4,2.8,3.4
		c1.5,0,2.7-1.5,2.7-3.3S326.2,372.8,324.7,372.8z"/>
	<path fill="#59BF94" stroke="#59BF94" stroke-miterlimit="10" d="M341.6,345.3c1.8,0.1,3.3,1.9,3.6,4.2l57.2,3.9l0.4,0.3l0,0.4v0.8
		c0,0-0.1,0-0.1,0c0,0,0,0-0.1,0c0,0-0.1,0-0.2,0c0,0-0.1,0-0.1,0c-0.2-0.1-0.3-0.1-0.5-0.1v0l-56.5-3.7c-0.3,2.2-1.8,3.8-3.6,3.7
		c-2.1-0.1-3.7-2.3-3.7-4.9C337.9,347.2,339.6,345.2,341.6,345.3z M341.6,353.1c1.4,0.1,2.5-1.2,2.5-3s-1.1-3.2-2.5-3.3
		c-1.4-0.1-2.5,1.2-2.5,3S340.3,353,341.6,353.1z"/>
	<path fill="#59BF94" stroke="#59BF94" stroke-miterlimit="10" d="M397.5,338.2c1.6,0.2,2.9,2.2,2.9,4.4s-1.3,4-2.9,3.9
		c-1.5-0.1-2.7-1.7-2.9-3.7l-41.3-3.7c-0.3,2.1-1.7,3.7-3.5,3.5c-2-0.2-3.6-2.4-3.6-4.9s1.6-4.5,3.6-4.3c1.8,0.2,3.2,2,3.5,4.2
		l41.3,3.9C394.8,339.4,396.1,338,397.5,338.2z M397.5,345.1c1.1,0.1,2-1.1,2-2.6c0-1.5-0.9-2.9-2-3c-1.1-0.1-2,1.1-2,2.6
		C395.6,343.7,396.4,345,397.5,345.1z M349.8,334.9c-1.3-0.1-2.4,1.1-2.4,2.8c0,1.7,1.1,3.2,2.4,3.3c1.3,0.1,2.4-1.2,2.4-2.8
		C352.2,336.5,351.1,335,349.8,334.9z"/>
	<path fill="#59BF94" stroke="#59BF94" stroke-miterlimit="10" d="M324.1,264.4v26.7l10.9,15.2l20.5,3v-26l0.2-0.6l0.4,0.1l47.6,9.3
		c-0.2,0.4-0.4,0.9-0.5,1.4l-46.5-9v25.8c0,0.1,0,0.2-0.1,0.4l-0.2,0.4l-21.7-3.1c0,0,0,0,0,0c-0.1,0-0.4-0.1-0.5-0.4L323,291.9
		c-0.2-0.3-0.3-0.6-0.3-0.8v-27.6C323.2,264,323.6,264.3,324.1,264.4z"/>
	<path fill="#59BF94" stroke="#59BF94" stroke-miterlimit="10" d="M334.1,267c0.4,0.1,0.9,0.2,1.3,0v22l9.6,1.7v-17.6l0-4.1
		c0.4,0.3,0.8,0.5,1.3,0.5l0,21.8c0,0,0,0.1,0,0.1c0,0.1,0,0.3,0,0.5l-0.1,0.6l-11.3-2c0,0,0,0,0,0c-0.3-0.1-0.5-0.3-0.6-0.4
		l-0.2-0.4l0.1-0.3V267z"/>
	<path fill="#59BF94" stroke="#59BF94" stroke-miterlimit="10" d="M378.6,296.2c1.7,0.3,3,2.2,3.3,4.4l21.4,3.7c0,0.5,0,1,0.1,1.5
		l-21.5-3.6c-0.3,2.1-1.6,3.5-3.3,3.3c-1.9-0.3-3.4-2.6-3.4-5.2S376.8,295.8,378.6,296.2z M378.6,303.8c1.2,0.2,2.2-1,2.2-2.7
		c0-1.7-1-3.2-2.2-3.4c-1.2-0.2-2.3,1-2.3,2.7C376.4,302.1,377.4,303.6,378.6,303.8z"/>
	<path fill="#59BF94" stroke="#59BF94" stroke-miterlimit="10" d="M378.6,308.9c1.7,0.3,3,2.1,3.3,4.3l22,3.2c0,0.5,0,1,0,1.5
		l-22.1-3.1c-0.3,2.1-1.6,3.6-3.3,3.4c-1.9-0.3-3.4-2.5-3.4-5.1C375.2,310.5,376.8,308.6,378.6,308.9z M378.6,316.6
		c1.2,0.2,2.2-1.1,2.2-2.7c0-1.7-1-3.2-2.2-3.4c-1.2-0.2-2.3,1-2.3,2.7C376.4,314.9,377.4,316.4,378.6,316.6z"/>
	<path fill="#59BF94" stroke="#59BF94" stroke-miterlimit="10" d="M330.4,357.3c2,0.1,3.7,2,4,4.4l59.7,2.7l0.2-0.1l0.2,0.3
		c0.1,0.1,0.2,0.3,0.2,0.7v20c-0.4,0-0.7,0.1-1.1,0.2v-19.6l-59.3-2.5c-0.3,2.3-2,4.1-4,4c-2.2-0.1-4.1-2.4-4.1-5.2
		S328.2,357.2,330.4,357.3z M330.4,365.7c1.5,0.1,2.7-1.4,2.7-3.2c0-1.8-1.2-3.4-2.7-3.5c-1.5-0.1-2.7,1.4-2.7,3.2
		C327.7,364.1,328.9,365.6,330.4,365.7z"/>
	<path fill="#59BF94" stroke="#59BF94" stroke-miterlimit="10" d="M378.6,321.7c1.7,0.2,3,2,3.3,4.2l21.9,2.6
		c-0.1,0.5-0.1,1-0.1,1.4l-21.8-2.5c-0.3,2.1-1.6,3.6-3.3,3.4c-1.9-0.2-3.4-2.4-3.4-5C375.2,323.3,376.8,321.4,378.6,321.7z
		 M378.6,329.3c1.2,0.1,2.2-1.1,2.2-2.8c0-1.7-1-3.2-2.2-3.3c-1.2-0.2-2.3,1.1-2.3,2.8C376.4,327.7,377.4,329.2,378.6,329.3z"/>
</g>
<path fill="#50B848" stroke="#2D3139" stroke-width="6" stroke-linejoin="round" stroke-miterlimit="10" d="M210.1,386.9l-0.4-116.6
	L210.1,386.9z"/>
<path fill="#50B848" stroke="#2D3139" stroke-width="6" stroke-linecap="square" stroke-linejoin="round" stroke-miterlimit="10" d="
	M304.6,259.6l-94.9,10.7L304.6,259.6z"/>
<line fill="#046938" stroke="#2D3139" stroke-width="4" stroke-linecap="round" stroke-linejoin="round" stroke-miterlimit="10" x1="304.6" y1="386.9" x2="304.6" y2="259.6"/>
<path fill="#046938" stroke="#2D3139" stroke-width="5" stroke-linejoin="round" stroke-miterlimit="10" d="M304.6,259l99.7,19.1
	L304.6,259z"/>
<line fill="#046938" stroke="#2D3139" stroke-width="5" stroke-linecap="round" stroke-linejoin="round" stroke-miterlimit="10" x1="404.3" y1="386.9" x2="404.3" y2="278.1"/>
<path fill="#046938" stroke="#046938" stroke-width="4" stroke-linecap="square" stroke-linejoin="round" stroke-miterlimit="10" d="
	M311.1,216.5"/>
<path fill="#046938" stroke="#046938" stroke-width="4" stroke-linecap="square" stroke-linejoin="round" stroke-miterlimit="10" d="
	M308.8,260.3"/>
<path fill="#046938" stroke="#046938" stroke-width="4" stroke-linecap="square" stroke-linejoin="round" stroke-miterlimit="10" d="
	M355.8,267.7"/>
<g>
	<path fill="#2D3139" d="M274.8,260.8c0,0.5-0.4,1-1,1l-13.4,0.5c-0.5,0-1-0.4-1-1l2.2-54.6c0-0.5,0.5-1,1-1h9.1c0.5,0,1,0.4,1,1
		L274.8,260.8z"/>
	<path fill="none" stroke="#2D3139" stroke-miterlimit="10" d="M274.8,260.8c0,0.5-0.4,1-1,1l-13.4,0.5c-0.5,0-1-0.4-1-1l2.2-54.6
		c0-0.5,0.5-1,1-1h9.1c0.5,0,1,0.4,1,1L274.8,260.8z"/>
</g>
<line fill="none" stroke="#59BF94" stroke-linejoin="bevel" stroke-miterlimit="10" x1="261.3" y1="261.5" x2="263.3" y2="205.1"/>
<line fill="none" stroke="#59BF94" stroke-miterlimit="10" x1="309.6" y1="258.1" x2="311.2" y2="213.7"/>
<line fill="none" stroke="#59BF94" stroke-miterlimit="10" x1="355.9" y1="266.6" x2="357.3" y2="224.7"/>
<text transform="matrix(1.016 0 0 1 206.5693 421.9785)" fill="#2D3139" font-family="'A25-SQUANOVA'" font-size="31.2442" letter-spacing="1">THE FACTORY</text>
<line fill="none" stroke="#2D3139" stroke-width="5" stroke-linecap="round" stroke-linejoin="round" stroke-miterlimit="10" x1="210.1" y1="387.9" x2="404.3" y2="387.9"/>
</svg>
